<mxfile host="app.diagrams.net" agent="Mozilla/5.0 (Windows NT 10.0; Win64; x64) AppleWebKit/537.36 (KHTML, like Gecko) Chrome/133.0.0.0 Safari/537.36 OPR/118.0.0.0" version="27.0.9">
  <diagram name="Страница — 1" id="HKzibgmiTWWlJNobzbWs">
    <mxGraphModel dx="1385" dy="788" grid="1" gridSize="10" guides="1" tooltips="1" connect="1" arrows="1" fold="1" page="1" pageScale="1" pageWidth="827" pageHeight="1169" math="0" shadow="0">
      <root>
        <mxCell id="0" />
        <mxCell id="1" parent="0" />
        <mxCell id="XVttFhsbzHMD15Y76J1d-1" value="«User Interface»&lt;br&gt;&lt;b&gt;- main.c (input/output, menu)&lt;/b&gt;" style="html=1;dropTarget=0;whiteSpace=wrap;" vertex="1" parent="1">
          <mxGeometry x="80" y="160" width="180" height="90" as="geometry" />
        </mxCell>
        <mxCell id="XVttFhsbzHMD15Y76J1d-2" value="" style="shape=module;jettyWidth=8;jettyHeight=4;" vertex="1" parent="XVttFhsbzHMD15Y76J1d-1">
          <mxGeometry x="1" width="20" height="20" relative="1" as="geometry">
            <mxPoint x="-27" y="7" as="offset" />
          </mxGeometry>
        </mxCell>
        <mxCell id="XVttFhsbzHMD15Y76J1d-4" value="«Application Logic»&lt;br&gt;&lt;b&gt;- app.c/h (command management&lt;/b&gt;&lt;div&gt;&lt;b&gt;- auth.c/h (authentication)&lt;/b&gt;&lt;/div&gt;&lt;div&gt;&lt;b&gt;- crud.c/h (CRUD-operations)&lt;/b&gt;&lt;/div&gt;" style="html=1;dropTarget=0;whiteSpace=wrap;" vertex="1" parent="1">
          <mxGeometry x="360" y="160" width="230" height="90" as="geometry" />
        </mxCell>
        <mxCell id="XVttFhsbzHMD15Y76J1d-5" value="" style="shape=module;jettyWidth=8;jettyHeight=4;" vertex="1" parent="XVttFhsbzHMD15Y76J1d-4">
          <mxGeometry x="1" width="20" height="20" relative="1" as="geometry">
            <mxPoint x="-27" y="7" as="offset" />
          </mxGeometry>
        </mxCell>
        <mxCell id="XVttFhsbzHMD15Y76J1d-9" value="" style="fontStyle=0;labelPosition=right;verticalLabelPosition=middle;align=left;verticalAlign=middle;spacingLeft=2;" vertex="1" parent="1">
          <mxGeometry x="260" y="190" width="30" height="30" as="geometry" />
        </mxCell>
        <mxCell id="XVttFhsbzHMD15Y76J1d-15" value="" style="fontStyle=0;labelPosition=right;verticalLabelPosition=middle;align=left;verticalAlign=middle;spacingLeft=2;" vertex="1" parent="1">
          <mxGeometry x="330" y="190" width="30" height="30" as="geometry" />
        </mxCell>
        <mxCell id="XVttFhsbzHMD15Y76J1d-19" value="" style="rounded=0;orthogonalLoop=1;jettySize=auto;html=1;endArrow=halfCircle;endFill=0;endSize=6;strokeWidth=1;sketch=0;" edge="1" target="XVttFhsbzHMD15Y76J1d-21" parent="1">
          <mxGeometry relative="1" as="geometry">
            <mxPoint x="330" y="205" as="sourcePoint" />
          </mxGeometry>
        </mxCell>
        <mxCell id="XVttFhsbzHMD15Y76J1d-20" value="" style="rounded=0;orthogonalLoop=1;jettySize=auto;html=1;endArrow=oval;endFill=0;sketch=0;sourcePerimeterSpacing=0;targetPerimeterSpacing=0;endSize=10;" edge="1" target="XVttFhsbzHMD15Y76J1d-21" parent="1">
          <mxGeometry relative="1" as="geometry">
            <mxPoint x="290" y="205" as="sourcePoint" />
          </mxGeometry>
        </mxCell>
        <mxCell id="XVttFhsbzHMD15Y76J1d-21" value="" style="ellipse;whiteSpace=wrap;html=1;align=center;aspect=fixed;fillColor=none;strokeColor=none;resizable=0;perimeter=centerPerimeter;rotatable=0;allowArrows=0;points=[];outlineConnect=1;" vertex="1" parent="1">
          <mxGeometry x="305" y="200" width="10" height="10" as="geometry" />
        </mxCell>
        <mxCell id="XVttFhsbzHMD15Y76J1d-22" value="«Work with Data»&lt;br&gt;&lt;b&gt;- db_utils.c/h (SQL-requests)&lt;/b&gt;&lt;div&gt;&lt;b&gt;- utils.c/h (auxiliary functions)&lt;/b&gt;&lt;/div&gt;&lt;div&gt;&lt;b&gt;- people.db (db-file)&lt;/b&gt;&lt;/div&gt;" style="html=1;dropTarget=0;whiteSpace=wrap;" vertex="1" parent="1">
          <mxGeometry x="385" y="360" width="180" height="90" as="geometry" />
        </mxCell>
        <mxCell id="XVttFhsbzHMD15Y76J1d-23" value="" style="shape=module;jettyWidth=8;jettyHeight=4;" vertex="1" parent="XVttFhsbzHMD15Y76J1d-22">
          <mxGeometry x="1" width="20" height="20" relative="1" as="geometry">
            <mxPoint x="-27" y="7" as="offset" />
          </mxGeometry>
        </mxCell>
        <mxCell id="XVttFhsbzHMD15Y76J1d-24" value="" style="fontStyle=0;labelPosition=right;verticalLabelPosition=middle;align=left;verticalAlign=middle;spacingLeft=2;" vertex="1" parent="1">
          <mxGeometry x="460" y="250" width="30" height="30" as="geometry" />
        </mxCell>
        <mxCell id="XVttFhsbzHMD15Y76J1d-25" value="" style="fontStyle=0;labelPosition=right;verticalLabelPosition=middle;align=left;verticalAlign=middle;spacingLeft=2;" vertex="1" parent="1">
          <mxGeometry x="460" y="330" width="30" height="30" as="geometry" />
        </mxCell>
        <mxCell id="XVttFhsbzHMD15Y76J1d-26" value="" style="rounded=0;orthogonalLoop=1;jettySize=auto;html=1;endArrow=halfCircle;endFill=0;endSize=6;strokeWidth=1;sketch=0;exitX=0.5;exitY=0;exitDx=0;exitDy=0;" edge="1" target="XVttFhsbzHMD15Y76J1d-28" parent="1" source="XVttFhsbzHMD15Y76J1d-25">
          <mxGeometry relative="1" as="geometry">
            <mxPoint x="495" y="305" as="sourcePoint" />
          </mxGeometry>
        </mxCell>
        <mxCell id="XVttFhsbzHMD15Y76J1d-27" value="" style="rounded=0;orthogonalLoop=1;jettySize=auto;html=1;endArrow=oval;endFill=0;sketch=0;sourcePerimeterSpacing=0;targetPerimeterSpacing=0;endSize=10;exitX=0.5;exitY=1;exitDx=0;exitDy=0;" edge="1" target="XVttFhsbzHMD15Y76J1d-28" parent="1" source="XVttFhsbzHMD15Y76J1d-24">
          <mxGeometry relative="1" as="geometry">
            <mxPoint x="455" y="305" as="sourcePoint" />
          </mxGeometry>
        </mxCell>
        <mxCell id="XVttFhsbzHMD15Y76J1d-28" value="" style="ellipse;whiteSpace=wrap;html=1;align=center;aspect=fixed;fillColor=none;strokeColor=none;resizable=0;perimeter=centerPerimeter;rotatable=0;allowArrows=0;points=[];outlineConnect=1;" vertex="1" parent="1">
          <mxGeometry x="470" y="300" width="10" height="10" as="geometry" />
        </mxCell>
        <mxCell id="XVttFhsbzHMD15Y76J1d-29" value="«External Dependencies»&lt;br&gt;&lt;b&gt;- sqlite3.h (SQLite library)&lt;/b&gt;" style="html=1;dropTarget=0;whiteSpace=wrap;" vertex="1" parent="1">
          <mxGeometry x="385" y="560" width="180" height="90" as="geometry" />
        </mxCell>
        <mxCell id="XVttFhsbzHMD15Y76J1d-30" value="" style="shape=module;jettyWidth=8;jettyHeight=4;" vertex="1" parent="XVttFhsbzHMD15Y76J1d-29">
          <mxGeometry x="1" width="20" height="20" relative="1" as="geometry">
            <mxPoint x="-27" y="7" as="offset" />
          </mxGeometry>
        </mxCell>
        <mxCell id="XVttFhsbzHMD15Y76J1d-31" value="" style="fontStyle=0;labelPosition=right;verticalLabelPosition=middle;align=left;verticalAlign=middle;spacingLeft=2;" vertex="1" parent="1">
          <mxGeometry x="460" y="450" width="30" height="30" as="geometry" />
        </mxCell>
        <mxCell id="XVttFhsbzHMD15Y76J1d-32" value="" style="fontStyle=0;labelPosition=right;verticalLabelPosition=middle;align=left;verticalAlign=middle;spacingLeft=2;" vertex="1" parent="1">
          <mxGeometry x="460" y="530" width="30" height="30" as="geometry" />
        </mxCell>
        <mxCell id="XVttFhsbzHMD15Y76J1d-36" value="" style="rounded=0;orthogonalLoop=1;jettySize=auto;html=1;endArrow=halfCircle;endFill=0;endSize=6;strokeWidth=1;sketch=0;exitX=0.5;exitY=0;exitDx=0;exitDy=0;" edge="1" target="XVttFhsbzHMD15Y76J1d-38" parent="1" source="XVttFhsbzHMD15Y76J1d-32">
          <mxGeometry relative="1" as="geometry">
            <mxPoint x="495" y="505" as="sourcePoint" />
          </mxGeometry>
        </mxCell>
        <mxCell id="XVttFhsbzHMD15Y76J1d-37" value="" style="rounded=0;orthogonalLoop=1;jettySize=auto;html=1;endArrow=oval;endFill=0;sketch=0;sourcePerimeterSpacing=0;targetPerimeterSpacing=0;endSize=10;exitX=0.5;exitY=1;exitDx=0;exitDy=0;" edge="1" target="XVttFhsbzHMD15Y76J1d-38" parent="1" source="XVttFhsbzHMD15Y76J1d-31">
          <mxGeometry relative="1" as="geometry">
            <mxPoint x="455" y="505" as="sourcePoint" />
          </mxGeometry>
        </mxCell>
        <mxCell id="XVttFhsbzHMD15Y76J1d-38" value="" style="ellipse;whiteSpace=wrap;html=1;align=center;aspect=fixed;fillColor=none;strokeColor=none;resizable=0;perimeter=centerPerimeter;rotatable=0;allowArrows=0;points=[];outlineConnect=1;" vertex="1" parent="1">
          <mxGeometry x="470" y="500" width="10" height="10" as="geometry" />
        </mxCell>
      </root>
    </mxGraphModel>
  </diagram>
</mxfile>
